<svg width="133" height="134" viewBox="0 0 133 134" fill="none" xmlns="http://www.w3.org/2000/svg">
<g clip-path="url(#clip0_14_162)">
<path d="M39.5641 28.2918C39.5641 34.5242 34.6743 39.5768 28.6433 39.5768C22.6128 39.5768 17.7235 34.5242 17.7235 28.2918C17.7235 22.0605 22.6134 17.0067 28.6433 17.0067C34.6743 17.0067 39.5641 22.0605 39.5641 28.2918Z" fill="#22314E"/>
<path fill-rule="evenodd" clip-rule="evenodd" d="M56.5641 28.2918C56.5641 43.3834 44.5842 56.5768 28.6433 56.5768C12.7013 56.5768 0.723511 43.3817 0.723511 28.2918C0.723511 13.2035 12.7013 0.00671387 28.6433 0.00671387C44.5853 0.00671387 56.5641 13.2024 56.5641 28.2918ZM28.6433 39.5768C34.6743 39.5768 39.5641 34.5242 39.5641 28.2918C39.5641 22.0605 34.6743 17.0067 28.6433 17.0067C22.6134 17.0067 17.7235 22.0605 17.7235 28.2918C17.7235 34.5242 22.6128 39.5768 28.6433 39.5768Z" fill="white"/>
<path d="M39.5641 66.7501C39.5641 72.9826 34.6743 78.0352 28.6433 78.0352C22.6128 78.0352 17.7235 72.9826 17.7235 66.7501C17.7235 60.5177 22.6134 55.4651 28.6433 55.4651C34.6743 55.4651 39.5641 60.5177 39.5641 66.7501Z" fill="#22314E"/>
<path fill-rule="evenodd" clip-rule="evenodd" d="M56.5641 66.7501C56.5641 81.8418 44.5842 95.0352 28.6433 95.0352C12.7013 95.0352 0.723511 81.8401 0.723511 66.7501C0.723511 51.6596 12.7024 38.4651 28.6433 38.4651C44.5842 38.4651 56.5641 51.6585 56.5641 66.7501ZM28.6433 78.0352C34.6743 78.0352 39.5641 72.9826 39.5641 66.7501C39.5641 60.5177 34.6743 55.4651 28.6433 55.4651C22.6134 55.4651 17.7235 60.5177 17.7235 66.7501C17.7235 72.9826 22.6128 78.0352 28.6433 78.0352Z" fill="white"/>
<path d="M39.5641 105.208C39.5641 111.439 34.6743 116.493 28.6433 116.493C22.6128 116.493 17.7235 111.439 17.7235 105.208C17.7235 98.9766 22.6134 93.9229 28.6433 93.9229C34.6743 93.9229 39.5641 98.9766 39.5641 105.208Z" fill="#22314E"/>
<path fill-rule="evenodd" clip-rule="evenodd" d="M56.5641 105.208C56.5641 120.297 44.5853 133.493 28.6433 133.493C12.7002 133.493 0.723511 120.296 0.723511 105.208C0.723511 90.1197 12.7013 76.9229 28.6433 76.9229C44.5853 76.9229 56.5641 90.1185 56.5641 105.208ZM28.6433 116.493C34.6743 116.493 39.5641 111.439 39.5641 105.208C39.5641 98.9766 34.6743 93.9229 28.6433 93.9229C22.6134 93.9229 17.7235 98.9766 17.7235 105.208C17.7235 111.439 22.6128 116.493 28.6433 116.493Z" fill="white"/>
<path d="M77.6702 66.7501C77.6702 72.9826 72.7804 78.0352 66.7493 78.0352C60.7189 78.0352 55.8296 72.9826 55.8296 66.7501C55.8296 60.5177 60.7194 55.4651 66.7493 55.4651C72.7809 55.4651 77.6702 60.5177 77.6702 66.7501Z" fill="#22314E"/>
<path fill-rule="evenodd" clip-rule="evenodd" d="M94.6702 66.7501C94.6702 81.8418 82.6902 95.0352 66.7493 95.0352C50.8073 95.0352 38.8296 81.8401 38.8296 66.7501C38.8296 51.6596 50.8085 38.4651 66.7493 38.4651C82.6913 38.4651 94.6702 51.6591 94.6702 66.7501ZM66.7493 78.0352C72.7804 78.0352 77.6702 72.9826 77.6702 66.7501C77.6702 60.5177 72.7809 55.4651 66.7493 55.4651C60.7194 55.4651 55.8296 60.5177 55.8296 66.7501C55.8296 72.9826 60.7189 78.0352 66.7493 78.0352Z" fill="white"/>
<path d="M77.6702 28.2918C77.6702 34.5242 72.7804 39.5768 66.7493 39.5768C60.7189 39.5768 55.8296 34.5242 55.8296 28.2918C55.8296 22.0605 60.7194 17.0067 66.7493 17.0067C72.7809 17.0067 77.6702 22.0605 77.6702 28.2918Z" fill="#22314E"/>
<path fill-rule="evenodd" clip-rule="evenodd" d="M94.6702 28.2918C94.6702 43.3834 82.6902 56.5768 66.7493 56.5768C50.8073 56.5768 38.8296 43.3817 38.8296 28.2918C38.8296 13.2035 50.8073 0.00671387 66.7493 0.00671387C82.6924 0.00671387 94.6702 13.203 94.6702 28.2918ZM66.7493 39.5768C72.7804 39.5768 77.6702 34.5242 77.6702 28.2918C77.6702 22.0605 72.7809 17.0067 66.7493 17.0067C60.7194 17.0067 55.8296 22.0605 55.8296 28.2918C55.8296 34.5242 60.7189 39.5768 66.7493 39.5768Z" fill="white"/>
<path d="M115.777 66.7501C115.777 72.9826 110.887 78.0352 104.856 78.0352C98.8256 78.0352 93.9363 72.9826 93.9363 66.7501C93.9363 60.5177 98.8261 55.4651 104.856 55.4651C110.887 55.4651 115.777 60.5177 115.777 66.7501Z" fill="#22314E"/>
<path fill-rule="evenodd" clip-rule="evenodd" d="M132.777 66.7501C132.777 81.8418 120.797 95.0352 104.856 95.0352C88.914 95.0352 76.9363 81.8401 76.9363 66.7501C76.9363 51.6596 88.9151 38.4651 104.856 38.4651C120.797 38.4651 132.777 51.6585 132.777 66.7501ZM104.856 78.0352C110.887 78.0352 115.777 72.9826 115.777 66.7501C115.777 60.5177 110.887 55.4651 104.856 55.4651C98.8261 55.4651 93.9363 60.5177 93.9363 66.7501C93.9363 72.9826 98.8256 78.0352 104.856 78.0352Z" fill="white"/>
<path d="M115.777 28.2918C115.777 34.5242 110.887 39.5768 104.856 39.5768C98.8256 39.5768 93.9363 34.5242 93.9363 28.2918C93.9363 22.0605 98.8261 17.0067 104.856 17.0067C110.887 17.0067 115.777 22.0605 115.777 28.2918Z" fill="#22314E"/>
<path fill-rule="evenodd" clip-rule="evenodd" d="M132.777 28.2918C132.777 43.3834 120.797 56.5768 104.856 56.5768C88.914 56.5768 76.9363 43.3817 76.9363 28.2918C76.9363 13.2035 88.914 0.00671387 104.856 0.00671387C120.798 0.00671387 132.777 13.2024 132.777 28.2918ZM104.856 39.5768C110.887 39.5768 115.777 34.5242 115.777 28.2918C115.777 22.0605 110.887 17.0067 104.856 17.0067C98.8261 17.0067 93.9363 22.0605 93.9363 28.2918C93.9363 34.5242 98.8256 39.5768 104.856 39.5768Z" fill="white"/>
<path d="M115.777 105.208C115.777 111.439 110.887 116.493 104.856 116.493C98.8256 116.493 93.9363 111.439 93.9363 105.208C93.9363 98.9766 98.8261 93.9229 104.856 93.9229C110.887 93.9229 115.777 98.9766 115.777 105.208Z" fill="#22314E"/>
<path fill-rule="evenodd" clip-rule="evenodd" d="M132.777 105.208C132.777 120.297 120.798 133.493 104.856 133.493C88.9129 133.493 76.9363 120.296 76.9363 105.208C76.9363 90.1197 88.914 76.9229 104.856 76.9229C120.798 76.9229 132.777 90.1185 132.777 105.208ZM104.856 116.493C110.887 116.493 115.777 111.439 115.777 105.208C115.777 98.9766 110.887 93.9229 104.856 93.9229C98.8261 93.9229 93.9363 98.9766 93.9363 105.208C93.9363 111.439 98.8256 116.493 104.856 116.493Z" fill="white"/>
<path d="M77.6702 105.208C77.6702 111.439 72.7804 116.493 66.7493 116.493C60.7189 116.493 55.8296 111.439 55.8296 105.208C55.8296 98.9766 60.7194 93.9229 66.7493 93.9229C72.7809 93.9229 77.6702 98.9766 77.6702 105.208Z" fill="#22314E"/>
<path fill-rule="evenodd" clip-rule="evenodd" d="M94.6702 105.208C94.6702 120.297 82.6913 133.493 66.7493 133.493C50.8062 133.493 38.8296 120.296 38.8296 105.208C38.8296 90.1197 50.8073 76.9229 66.7493 76.9229C82.6924 76.9229 94.6702 90.1191 94.6702 105.208ZM66.7493 116.493C72.7804 116.493 77.6702 111.439 77.6702 105.208C77.6702 98.9766 72.7809 93.9229 66.7493 93.9229C60.7194 93.9229 55.8296 98.9766 55.8296 105.208C55.8296 111.439 60.7189 116.493 66.7493 116.493Z" fill="white"/>
<path d="M39.5641 28.2918C39.5641 34.5242 34.6743 39.5768 28.6433 39.5768C22.6128 39.5768 17.7235 34.5242 17.7235 28.2918C17.7235 22.0605 22.6134 17.0067 28.6433 17.0067C34.6743 17.0067 39.5641 22.0605 39.5641 28.2918Z" fill="#22314E"/>
<path d="M39.5641 66.7501C39.5641 72.9826 34.6743 78.0352 28.6433 78.0352C22.6128 78.0352 17.7235 72.9826 17.7235 66.7501C17.7235 60.5177 22.6134 55.4651 28.6433 55.4651C34.6743 55.4651 39.5641 60.5177 39.5641 66.7501Z" fill="#22314E"/>
<path d="M39.5641 105.208C39.5641 111.439 34.6743 116.493 28.6433 116.493C22.6128 116.493 17.7235 111.439 17.7235 105.208C17.7235 98.9766 22.6134 93.9229 28.6433 93.9229C34.6743 93.9229 39.5641 98.9766 39.5641 105.208Z" fill="#22314E"/>
<path d="M77.6702 66.7501C77.6702 72.9826 72.7804 78.0352 66.7493 78.0352C60.7189 78.0352 55.8296 72.9826 55.8296 66.7501C55.8296 60.5177 60.7194 55.4651 66.7493 55.4651C72.7809 55.4651 77.6702 60.5177 77.6702 66.7501Z" fill="#22314E"/>
<path d="M77.6702 28.2918C77.6702 34.5242 72.7804 39.5768 66.7493 39.5768C60.7189 39.5768 55.8296 34.5242 55.8296 28.2918C55.8296 22.0605 60.7194 17.0067 66.7493 17.0067C72.7809 17.0067 77.6702 22.0605 77.6702 28.2918Z" fill="#22314E"/>
<path d="M115.777 66.7501C115.777 72.9826 110.887 78.0352 104.856 78.0352C98.8256 78.0352 93.9363 72.9826 93.9363 66.7501C93.9363 60.5177 98.8261 55.4651 104.856 55.4651C110.887 55.4651 115.777 60.5177 115.777 66.7501Z" fill="#22314E"/>
<path d="M115.777 28.2918C115.777 34.5242 110.887 39.5768 104.856 39.5768C98.8256 39.5768 93.9363 34.5242 93.9363 28.2918C93.9363 22.0605 98.8261 17.0067 104.856 17.0067C110.887 17.0067 115.777 22.0605 115.777 28.2918Z" fill="#22314E"/>
<path d="M115.777 105.208C115.777 111.439 110.887 116.493 104.856 116.493C98.8256 116.493 93.9363 111.439 93.9363 105.208C93.9363 98.9766 98.8261 93.9229 104.856 93.9229C110.887 93.9229 115.777 98.9766 115.777 105.208Z" fill="#22314E"/>
<path d="M77.6702 105.208C77.6702 111.439 72.7804 116.493 66.7493 116.493C60.7189 116.493 55.8296 111.439 55.8296 105.208C55.8296 98.9766 60.7194 93.9229 66.7493 93.9229C72.7809 93.9229 77.6702 98.9766 77.6702 105.208Z" fill="#22314E"/>
</g>
<defs>
<clipPath id="clip0_14_162">
<rect width="133" height="134" fill="white"/>
</clipPath>
</defs>
</svg>
