<svg width="421" height="138" viewBox="0 0 421 138" fill="none" xmlns="http://www.w3.org/2000/svg">
<g clip-path="url(#clip0_14_128)">
<path d="M21 36H365V109H21V36Z" fill="white"/>
<path d="M39.2988 30.502C39.2988 36.7344 34.409 41.787 28.378 41.787C22.3475 41.787 17.4582 36.7344 17.4582 30.502C17.4582 24.2707 22.3481 19.2169 28.378 19.2169C34.409 19.2169 39.2988 24.2707 39.2988 30.502Z" fill="#22314E"/>
<path fill-rule="evenodd" clip-rule="evenodd" d="M56.2988 30.502C56.2988 45.5936 44.3189 58.787 28.378 58.787C12.436 58.787 0.458221 45.5919 0.458221 30.502C0.458221 15.4138 12.436 2.21692 28.378 2.21692C44.32 2.21692 56.2988 15.4126 56.2988 30.502ZM28.378 41.787C34.409 41.787 39.2988 36.7344 39.2988 30.502C39.2988 24.2707 34.409 19.2169 28.378 19.2169C22.3481 19.2169 17.4582 24.2707 17.4582 30.502C17.4582 36.7344 22.3475 41.787 28.378 41.787Z" fill="white"/>
<path d="M39.2988 68.9597C39.2988 75.1922 34.409 80.2448 28.378 80.2448C22.3475 80.2448 17.4582 75.1922 17.4582 68.9597C17.4582 62.7273 22.3481 57.6747 28.378 57.6747C34.409 57.6747 39.2988 62.7273 39.2988 68.9597Z" fill="#22314E"/>
<path fill-rule="evenodd" clip-rule="evenodd" d="M56.2988 68.9597C56.2988 84.0514 44.3189 97.2448 28.378 97.2448C12.436 97.2448 0.458221 84.0497 0.458221 68.9597C0.458221 53.8692 12.4371 40.6747 28.378 40.6747C44.3189 40.6747 56.2988 53.8681 56.2988 68.9597ZM28.378 80.2448C34.409 80.2448 39.2988 75.1922 39.2988 68.9597C39.2988 62.7273 34.409 57.6747 28.378 57.6747C22.3481 57.6747 17.4582 62.7273 17.4582 68.9597C17.4582 75.1922 22.3475 80.2448 28.378 80.2448Z" fill="white"/>
<path d="M39.2988 107.418C39.2988 113.649 34.409 118.703 28.378 118.703C22.3475 118.703 17.4582 113.649 17.4582 107.418C17.4582 101.187 22.3481 96.1331 28.378 96.1331C34.409 96.1331 39.2988 101.186 39.2988 107.418Z" fill="#22314E"/>
<path fill-rule="evenodd" clip-rule="evenodd" d="M56.2988 107.418C56.2988 122.507 44.32 135.703 28.378 135.703C12.4349 135.703 0.458221 122.506 0.458221 107.418C0.458221 92.3299 12.436 79.1331 28.378 79.1331C44.3194 79.1331 56.2988 92.3276 56.2988 107.418ZM28.378 118.703C34.409 118.703 39.2988 113.649 39.2988 107.418C39.2988 101.186 34.409 96.1331 28.378 96.1331C22.3481 96.1331 17.4582 101.187 17.4582 107.418C17.4582 113.649 22.3475 118.703 28.378 118.703Z" fill="white"/>
<path d="M77.4055 68.9597C77.4055 75.1922 72.5157 80.2448 66.4846 80.2448C60.4542 80.2448 55.5649 75.1922 55.5649 68.9597C55.5649 62.7273 60.4547 57.6747 66.4846 57.6747C72.5157 57.6747 77.4055 62.7273 77.4055 68.9597Z" fill="#22314E"/>
<path fill-rule="evenodd" clip-rule="evenodd" d="M94.4055 68.9597C94.4055 84.0514 82.4255 97.2448 66.4846 97.2448C50.5426 97.2448 38.5649 84.0497 38.5649 68.9597C38.5649 53.8692 50.5438 40.6747 66.4846 40.6747C82.4255 40.6747 94.4055 53.8681 94.4055 68.9597ZM66.4846 80.2448C72.5157 80.2448 77.4055 75.1922 77.4055 68.9597C77.4055 62.7273 72.5157 57.6747 66.4846 57.6747C60.4547 57.6747 55.5649 62.7273 55.5649 68.9597C55.5649 75.1922 60.4542 80.2448 66.4846 80.2448Z" fill="white"/>
<path d="M77.4055 30.502C77.4055 36.7344 72.5157 41.787 66.4846 41.787C60.4542 41.787 55.5649 36.7344 55.5649 30.502C55.5649 24.2707 60.4547 19.2169 66.4846 19.2169C72.5157 19.2169 77.4055 24.2707 77.4055 30.502Z" fill="#22314E"/>
<path fill-rule="evenodd" clip-rule="evenodd" d="M94.4055 30.502C94.4055 45.5936 82.4255 58.787 66.4846 58.787C50.5426 58.787 38.5649 45.5919 38.5649 30.502C38.5649 15.4137 50.5427 2.21692 66.4846 2.21692C82.4266 2.21692 94.4055 15.4126 94.4055 30.502ZM66.4846 41.787C72.5157 41.787 77.4055 36.7344 77.4055 30.502C77.4055 24.2707 72.5157 19.2169 66.4846 19.2169C60.4547 19.2169 55.5649 24.2707 55.5649 30.502C55.5649 36.7344 60.4542 41.787 66.4846 41.787Z" fill="white"/>
<path d="M115.512 68.9597C115.512 75.1922 110.622 80.2448 104.591 80.2448C98.5603 80.2448 93.671 75.1922 93.671 68.9597C93.671 62.7273 98.5609 57.6747 104.591 57.6747C110.622 57.6747 115.512 62.7273 115.512 68.9597Z" fill="#22314E"/>
<path fill-rule="evenodd" clip-rule="evenodd" d="M132.512 68.9597C132.512 84.0514 120.532 97.2448 104.591 97.2448C88.6488 97.2448 76.671 84.0497 76.671 68.9597C76.671 53.8692 88.6499 40.6747 104.591 40.6747C120.533 40.6747 132.512 53.8687 132.512 68.9597ZM104.591 80.2448C110.622 80.2448 115.512 75.1922 115.512 68.9597C115.512 62.7273 110.622 57.6747 104.591 57.6747C98.5609 57.6747 93.671 62.7273 93.671 68.9597C93.671 75.1922 98.5603 80.2448 104.591 80.2448Z" fill="white"/>
<path d="M115.512 30.502C115.512 36.7344 110.622 41.787 104.591 41.787C98.5603 41.787 93.671 36.7344 93.671 30.502C93.671 24.2707 98.5609 19.2169 104.591 19.2169C110.622 19.2169 115.512 24.2707 115.512 30.502Z" fill="#22314E"/>
<path fill-rule="evenodd" clip-rule="evenodd" d="M132.512 30.502C132.512 45.5936 120.532 58.787 104.591 58.787C88.6488 58.787 76.671 45.5919 76.671 30.502C76.671 15.4138 88.6488 2.21692 104.591 2.21692C120.534 2.21692 132.512 15.4132 132.512 30.502ZM104.591 41.787C110.622 41.787 115.512 36.7344 115.512 30.502C115.512 24.2707 110.622 19.2169 104.591 19.2169C98.5609 19.2169 93.671 24.2707 93.671 30.502C93.671 36.7344 98.5603 41.787 104.591 41.787Z" fill="white"/>
<path d="M115.512 107.418C115.512 113.649 110.622 118.703 104.591 118.703C98.5603 118.703 93.671 113.649 93.671 107.418C93.671 101.187 98.5609 96.1331 104.591 96.1331C110.622 96.1331 115.512 101.186 115.512 107.418Z" fill="#22314E"/>
<path fill-rule="evenodd" clip-rule="evenodd" d="M132.512 107.418C132.512 122.507 120.533 135.703 104.591 135.703C88.6477 135.703 76.671 122.506 76.671 107.418C76.671 92.3299 88.6488 79.1331 104.591 79.1331C120.533 79.1331 132.512 92.3282 132.512 107.418ZM104.591 118.703C110.622 118.703 115.512 113.649 115.512 107.418C115.512 101.186 110.622 96.1331 104.591 96.1331C98.5609 96.1331 93.671 101.187 93.671 107.418C93.671 113.649 98.5603 118.703 104.591 118.703Z" fill="white"/>
<path d="M77.4055 107.418C77.4055 113.649 72.5157 118.703 66.4846 118.703C60.4542 118.703 55.5649 113.649 55.5649 107.418C55.5649 101.187 60.4547 96.1331 66.4846 96.1331C72.5157 96.1331 77.4055 101.186 77.4055 107.418Z" fill="#22314E"/>
<path fill-rule="evenodd" clip-rule="evenodd" d="M94.4055 107.418C94.4055 122.507 82.4266 135.703 66.4846 135.703C50.5415 135.703 38.5649 122.506 38.5649 107.418C38.5649 92.3299 50.5427 79.1331 66.4846 79.1331C82.4261 79.1331 94.4055 92.3276 94.4055 107.418ZM66.4846 118.703C72.5157 118.703 77.4055 113.649 77.4055 107.418C77.4055 101.186 72.5157 96.1331 66.4846 96.1331C60.4547 96.1331 55.5649 101.187 55.5649 107.418C55.5649 113.649 60.4542 118.703 66.4846 118.703Z" fill="white"/>
<path d="M198.786 78.0099L218.354 118.455H201.797L182.776 79.2836H161.155V118.455H147.06V19.4625H189.07C205.765 19.4625 219.859 28.6552 219.859 49.019C219.859 64.858 211.786 74.6152 198.786 78.0099ZM189.07 33.4628H161.156V65.2822H189.07C198.65 65.2822 205.355 60.1907 205.355 49.4432C205.354 39.1193 198.786 33.4628 189.07 33.4628Z" fill="#22314E"/>
<path fill-rule="evenodd" clip-rule="evenodd" d="M189.07 33.4628C198.652 33.4628 205.173 38.9645 205.351 49.019C205.353 49.1595 205.355 49.3009 205.355 49.4432C205.355 57.6889 201.408 62.6054 195.244 64.4475C194.263 64.7407 193.226 64.9561 192.139 65.0945C191.155 65.2199 190.13 65.2822 189.07 65.2822H161.156V33.4628H189.07ZM147.06 19.4625H189.07C205.765 19.4625 219.859 28.6552 219.859 49.019C219.859 49.1606 219.859 49.3018 219.857 49.4424C219.857 49.4422 219.857 49.4427 219.857 49.4424C219.761 59.9039 216.107 67.6749 209.82 72.6715C207.229 74.73 204.192 76.3177 200.773 77.4288C200.124 77.6397 199.462 77.8334 198.786 78.0099L218.354 118.455H201.797L182.776 79.2836H161.156L161.155 118.455H147.06V19.4625ZM178.155 108.687V118.455C178.155 127.844 170.544 135.455 161.155 135.455H147.06C137.672 135.455 130.06 127.844 130.06 118.455V19.4625C130.06 10.0737 137.672 2.46252 147.06 2.46252H189.07C200.345 2.46252 212.364 5.56032 221.835 13.7365C231.692 22.2469 236.859 34.6068 236.859 49.019C236.859 59.8607 234.062 70.0533 227.783 78.4002C225.818 81.0135 223.609 83.3151 221.208 85.3211L233.657 111.051C236.206 116.32 235.866 122.529 232.757 127.487C229.647 132.445 224.206 135.455 218.354 135.455H201.797C195.286 135.455 189.348 131.737 186.504 125.881L178.155 108.687Z" fill="white"/>
<path d="M278.02 120.012C253.253 120.012 237.516 98.9399 237.516 68.9592C237.516 38.9785 253.253 17.9071 278.02 17.9071C302.926 17.9071 318.662 38.9785 318.662 68.9592C318.662 98.9399 302.926 120.012 278.02 120.012ZM278.02 32.7558C261.326 32.7558 252.158 46.756 252.158 68.9592C252.158 91.1623 261.326 105.163 278.02 105.163C294.853 105.163 304.02 91.1623 304.02 68.9592C304.02 46.756 294.852 32.7558 278.02 32.7558Z" fill="#22314E"/>
<path fill-rule="evenodd" clip-rule="evenodd" d="M235.074 116.182C225.173 103.485 220.516 86.7505 220.516 68.9592C220.516 51.1678 225.173 34.4335 235.074 21.7365C245.268 8.66385 260.305 0.907104 278.02 0.907104C295.774 0.907104 310.848 8.63835 321.074 21.7208C331.005 34.4246 335.662 51.1685 335.662 68.9592C335.662 86.7499 331.005 103.494 321.074 116.198C310.848 129.28 295.774 137.012 278.02 137.012C260.305 137.012 245.268 129.255 235.074 116.182ZM272.77 52.2592C271.089 54.6694 269.158 59.8559 269.158 68.9592C269.158 78.0625 271.089 83.249 272.77 85.6591C273.922 87.3089 275.145 88.1626 278.02 88.1626C281.015 88.1626 282.265 87.2665 283.409 85.6336C285.089 83.2353 287.02 78.065 287.02 68.9592C287.02 59.8535 285.089 54.6832 283.409 52.2849C282.265 50.6517 281.015 49.7558 278.02 49.7558C275.145 49.7558 273.922 50.6094 272.77 52.2592ZM237.516 68.9592C237.516 98.9399 253.253 120.012 278.02 120.012C302.926 120.012 318.662 98.9399 318.662 68.9592C318.662 38.9785 302.926 17.9071 278.02 17.9071C253.253 17.9071 237.516 38.9785 237.516 68.9592ZM252.158 68.9592C252.158 46.756 261.326 32.7558 278.02 32.7558C294.852 32.7558 304.02 46.756 304.02 68.9592C304.02 91.1623 294.853 105.163 278.02 105.163C261.326 105.163 252.158 91.1623 252.158 68.9592Z" fill="white"/>
<path d="M368.066 120.012C354.108 120.012 342.067 113.789 333.992 104.031L344.256 93.7069C350.687 100.92 360.129 105.445 369.16 105.445C382.57 105.445 389.002 100.637 389.002 91.0203C389.002 83.3836 383.392 79.5653 367.381 74.6152C347.129 68.3936 337.414 63.1612 337.414 45.484C337.414 28.3724 351.371 17.9071 369.023 17.9071C382.023 17.9071 391.875 22.8567 400.359 31.3418L390.234 41.9484C384.213 35.5849 377.371 32.4735 367.93 32.4735C356.707 32.4735 351.918 38.1301 351.918 44.777C351.918 51.7067 356.297 55.1009 372.855 60.1913C391.738 66.1312 403.508 72.3533 403.508 90.0305C403.507 107.85 392.56 120.012 368.066 120.012Z" fill="#22314E"/>
<path fill-rule="evenodd" clip-rule="evenodd" d="M320.895 114.869C315.316 108.128 315.766 98.2519 321.936 92.046L332.2 81.7215C333.29 80.6247 334.514 79.6925 335.833 78.9402C335.093 78.3825 334.373 77.8019 333.674 77.1965C324.117 68.9206 320.414 57.9782 320.414 45.484C320.414 31.8909 326.137 20.2157 335.704 12.2288C344.983 4.48185 356.959 0.907104 369.023 0.907104C387.175 0.907104 401.193 8.13334 412.38 19.3214C418.91 25.8515 419.033 36.4001 412.656 43.08L402.531 53.6867C402.296 53.9334 402.054 54.1723 401.805 54.4031C403.357 55.4354 404.853 56.5494 406.273 57.7569C415.688 65.7602 420.508 76.6302 420.508 90.0305V90.0311C420.508 102.481 416.579 115.042 406.404 124.286C396.459 133.321 382.929 137.012 368.066 137.012C348.819 137.012 332.054 128.355 320.895 114.869ZM365.758 49.6904C365.757 49.6898 365.772 49.6839 365.804 49.6744C365.774 49.6862 365.758 49.691 365.758 49.6904ZM387.47 39.3093C388.331 40.0463 389.173 40.8436 389.999 41.7015C390.077 41.7833 390.156 41.8656 390.234 41.9484L400.359 31.3418C399.694 30.6763 399.02 30.0326 398.337 29.4113C394.65 26.0577 390.692 23.3576 386.33 21.4183C381.196 19.1358 375.5 17.9071 369.023 17.9071C368.657 17.9071 368.292 17.9116 367.93 17.9206C351.04 18.3381 337.793 28.4357 337.422 44.777C337.416 45.0114 337.414 45.2471 337.414 45.484C337.414 63.1612 347.129 68.3936 367.381 74.6152C367.669 74.7042 367.953 74.7929 368.234 74.8812C368.266 74.8912 368.298 74.9012 368.33 74.9113C382.926 79.503 388.496 83.1904 388.969 90.0301C388.969 90.0302 388.969 90.0304 388.969 90.0305C388.991 90.3533 389.002 90.6831 389.002 91.0203C389.002 100.637 382.57 105.445 369.16 105.445C368.796 105.445 368.431 105.438 368.066 105.423C360.697 105.129 353.148 101.889 347.259 96.6927C346.554 96.0701 345.872 95.4194 345.217 94.7423C344.89 94.4037 344.569 94.0585 344.256 93.7069L333.992 104.031C335.848 106.274 337.914 108.331 340.164 110.168C342.344 111.947 344.697 113.52 347.201 114.857C353.357 118.147 360.424 120.012 368.066 120.012C368.434 120.012 368.798 120.009 369.16 120.004C392.438 119.652 403.101 108.034 403.496 91.0203C403.504 90.6924 403.508 90.3625 403.508 90.0305C403.508 72.3533 391.738 66.1312 372.855 60.1913C372.542 60.095 372.233 59.9992 371.929 59.9041C371.92 59.9014 371.911 59.8987 371.902 59.896C356.685 55.1414 352.229 51.8135 351.934 45.484C351.923 45.2524 351.918 45.0168 351.918 44.777C351.918 38.1301 356.707 32.4735 367.93 32.4735C368.298 32.4735 368.662 32.4783 369.023 32.4878C376.521 32.6849 382.353 34.9337 387.47 39.3093Z" fill="white"/>
<path d="M39.2988 30.502C39.2988 36.7344 34.409 41.787 28.378 41.787C22.3475 41.787 17.4582 36.7344 17.4582 30.502C17.4582 24.2707 22.3481 19.2169 28.378 19.2169C34.409 19.2169 39.2988 24.2707 39.2988 30.502Z" fill="#22314E"/>
<path d="M39.2988 68.9597C39.2988 75.1922 34.409 80.2448 28.378 80.2448C22.3475 80.2448 17.4582 75.1922 17.4582 68.9597C17.4582 62.7273 22.3481 57.6747 28.378 57.6747C34.409 57.6747 39.2988 62.7273 39.2988 68.9597Z" fill="#22314E"/>
<path d="M39.2988 107.418C39.2988 113.649 34.409 118.703 28.378 118.703C22.3475 118.703 17.4582 113.649 17.4582 107.418C17.4582 101.187 22.3481 96.1331 28.378 96.1331C34.409 96.1331 39.2988 101.186 39.2988 107.418Z" fill="#22314E"/>
<path d="M77.4055 68.9597C77.4055 75.1922 72.5157 80.2448 66.4846 80.2448C60.4542 80.2448 55.5649 75.1922 55.5649 68.9597C55.5649 62.7273 60.4547 57.6747 66.4846 57.6747C72.5157 57.6747 77.4055 62.7273 77.4055 68.9597Z" fill="#22314E"/>
<path d="M77.4055 30.502C77.4055 36.7344 72.5157 41.787 66.4846 41.787C60.4542 41.787 55.5649 36.7344 55.5649 30.502C55.5649 24.2707 60.4547 19.2169 66.4846 19.2169C72.5157 19.2169 77.4055 24.2707 77.4055 30.502Z" fill="#22314E"/>
<path d="M115.512 68.9597C115.512 75.1922 110.622 80.2448 104.591 80.2448C98.5603 80.2448 93.671 75.1922 93.671 68.9597C93.671 62.7273 98.5609 57.6747 104.591 57.6747C110.622 57.6747 115.512 62.7273 115.512 68.9597Z" fill="#22314E"/>
<path d="M115.512 30.502C115.512 36.7344 110.622 41.787 104.591 41.787C98.5603 41.787 93.671 36.7344 93.671 30.502C93.671 24.2707 98.5609 19.2169 104.591 19.2169C110.622 19.2169 115.512 24.2707 115.512 30.502Z" fill="#22314E"/>
<path d="M115.512 107.418C115.512 113.649 110.622 118.703 104.591 118.703C98.5603 118.703 93.671 113.649 93.671 107.418C93.671 101.187 98.5609 96.1331 104.591 96.1331C110.622 96.1331 115.512 101.186 115.512 107.418Z" fill="#22314E"/>
<path d="M77.4055 107.418C77.4055 113.649 72.5157 118.703 66.4846 118.703C60.4542 118.703 55.5649 113.649 55.5649 107.418C55.5649 101.187 60.4547 96.1331 66.4846 96.1331C72.5157 96.1331 77.4055 101.186 77.4055 107.418Z" fill="#22314E"/>
<path d="M198.786 78.0099L218.354 118.455H201.797L182.776 79.2836H161.155V118.455H147.06V19.4625H189.07C205.765 19.4625 219.859 28.6552 219.859 49.019C219.859 64.858 211.786 74.6152 198.786 78.0099ZM189.07 33.4628H161.156V65.2822H189.07C198.65 65.2822 205.355 60.1907 205.355 49.4432C205.354 39.1193 198.786 33.4628 189.07 33.4628Z" fill="#22314E"/>
<path d="M278.02 120.012C253.253 120.012 237.516 98.9399 237.516 68.9592C237.516 38.9785 253.253 17.9071 278.02 17.9071C302.926 17.9071 318.662 38.9785 318.662 68.9592C318.662 98.9399 302.926 120.012 278.02 120.012ZM278.02 32.7558C261.326 32.7558 252.158 46.756 252.158 68.9592C252.158 91.1623 261.326 105.163 278.02 105.163C294.853 105.163 304.02 91.1623 304.02 68.9592C304.02 46.756 294.852 32.7558 278.02 32.7558Z" fill="#22314E"/>
<path d="M368.066 120.012C354.108 120.012 342.067 113.789 333.992 104.031L344.256 93.7069C350.687 100.92 360.129 105.445 369.16 105.445C382.57 105.445 389.002 100.637 389.002 91.0203C389.002 83.3836 383.392 79.5653 367.381 74.6152C347.129 68.3936 337.414 63.1612 337.414 45.484C337.414 28.3724 351.371 17.9071 369.023 17.9071C382.023 17.9071 391.875 22.8567 400.359 31.3418L390.234 41.9484C384.213 35.5849 377.371 32.4735 367.93 32.4735C356.707 32.4735 351.918 38.1301 351.918 44.777C351.918 51.7067 356.297 55.1009 372.855 60.1913C391.738 66.1312 403.508 72.3533 403.508 90.0305C403.507 107.85 392.56 120.012 368.066 120.012Z" fill="#22314E"/>
</g>
<defs>
<clipPath id="clip0_14_128">
<rect width="421" height="138" fill="white"/>
</clipPath>
</defs>
</svg>
