<svg width="340" height="264" viewBox="0 0 340 264" fill="none" xmlns="http://www.w3.org/2000/svg">
<g clip-path="url(#clip0_14_225)">
<path d="M246.5 189.5H284.4V98.5L241.7 55.8L214.9 82.6L246.5 114.2V189.5ZM284.5 208.5H229.3H152.3L120.7 176.9L134.1 163.5L160.2 189.6H213.9L161 136.6L174.5 123.1L227.4 176V122.3L201.4 96.3L214.7 83L149 17H84.2H17L54.8 54.8V54.9H55H133.2L160.9 82.6L120.4 123.1L92.7 95.4V73.9H54.8V111.1L120.4 176.7L93.7 203.4L136.4 246.1H201.2H322.3L284.5 208.5Z" fill="#231F20"/>
<path fill-rule="evenodd" clip-rule="evenodd" d="M227.4 176L174.5 123.1L161.002 136.598L161 136.6L213.9 189.6H160.2L134.1 163.5L120.7 176.9L152.3 208.5H284.5L322.3 246.1H136.4L93.7 203.4L120.4 176.7L54.8 111.1V73.9H92.7V95.4L120.4 123.1L160.9 82.6L133.2 54.9H54.8V54.8L17 17H149L214.7 83L201.4 96.3L227.4 122.3V176ZM246.5 114.2V189.5H284.4V98.5L241.7 55.8L214.9 82.6L246.5 114.2ZM214.628 58.8307L229.679 43.7792C236.318 37.1403 247.082 37.1403 253.721 43.7792L296.421 86.4792C299.609 89.6673 301.4 93.9913 301.4 98.5V189.5C301.4 192.876 300.416 196.021 298.72 198.666L334.289 234.047C339.17 238.902 340.641 246.221 338.015 252.585C335.389 258.948 329.184 263.1 322.3 263.1H136.4C131.891 263.1 127.567 261.309 124.379 258.121L81.6792 215.421C78.4911 212.233 76.7 207.909 76.7 203.4C76.7 198.891 78.4911 194.567 81.6792 191.379L96.3584 176.7L42.7792 123.121C39.5911 119.933 37.8 115.609 37.8 111.1V73.9C37.8 70.4696 38.8161 67.2765 40.5636 64.6053L4.97919 29.0208C0.117227 24.1588 -1.33722 16.8468 1.29406 10.4944C3.92533 4.14192 10.1241 0 17 0H149C153.522 0 157.858 1.80171 161.048 5.0066L214.628 58.8307ZM109.584 71.9C109.66 72.556 109.7 73.2234 109.7 73.9V88.3584L120.4 99.0584L136.858 82.6L126.158 71.9H109.584Z" fill="white"/>
</g>
<defs>
<clipPath id="clip0_14_225">
<rect width="340" height="264" fill="white"/>
</clipPath>
</defs>
</svg>
