<svg width="459" height="124" viewBox="0 0 459 124" fill="none" xmlns="http://www.w3.org/2000/svg">
<g clip-path="url(#clip0_14_183)">
<path d="M78 28H412V96H78V28Z" fill="white"/>
<path d="M36.706 28.466C36.706 33.9 32.442 38.307 27.182 38.307C21.923 38.307 17.66 33.9 17.66 28.466C17.66 23.031 21.924 18.625 27.182 18.625C32.442 18.625 36.706 23.032 36.706 28.466Z" fill="#22314E"/>
<path fill-rule="evenodd" clip-rule="evenodd" d="M53.706 28.466C53.706 42.7587 42.3524 55.307 27.182 55.307C12.0091 55.307 0.659973 42.7551 0.659973 28.466C0.659973 14.1736 12.0124 1.625 27.182 1.625C42.3524 1.625 53.706 14.1733 53.706 28.466ZM27.182 38.307C32.442 38.307 36.706 33.9 36.706 28.466C36.706 23.032 32.442 18.625 27.182 18.625C21.924 18.625 17.66 23.031 17.66 28.466C17.66 33.9 21.923 38.307 27.182 38.307Z" fill="white"/>
<path d="M36.706 62.002C36.706 67.437 32.442 71.845 27.182 71.845C21.923 71.845 17.66 67.437 17.66 62.002C17.66 56.568 21.924 52.161 27.182 52.161C32.442 52.161 36.706 56.568 36.706 62.002Z" fill="#22314E"/>
<path fill-rule="evenodd" clip-rule="evenodd" d="M53.706 62.002C53.706 76.2922 42.3557 88.845 27.182 88.845C12.0058 88.845 0.659973 76.2887 0.659973 62.002C0.659973 47.7117 12.0113 35.161 27.182 35.161C42.3524 35.161 53.706 47.7094 53.706 62.002ZM27.182 71.845C32.442 71.845 36.706 67.437 36.706 62.002C36.706 56.568 32.442 52.161 27.182 52.161C21.924 52.161 17.66 56.568 17.66 62.002C17.66 67.437 21.923 71.845 27.182 71.845Z" fill="white"/>
<path d="M36.706 95.538C36.706 100.974 32.442 105.38 27.182 105.38C21.923 105.38 17.66 100.974 17.66 95.538C17.66 90.104 21.924 85.698 27.182 85.698C32.442 85.698 36.706 90.104 36.706 95.538Z" fill="#22314E"/>
<path fill-rule="evenodd" clip-rule="evenodd" d="M53.706 95.538C53.706 109.833 42.3524 122.38 27.182 122.38C12.0091 122.38 0.659973 109.829 0.659973 95.538C0.659973 81.2454 12.0135 68.698 27.182 68.698C42.3502 68.698 53.706 81.2431 53.706 95.538ZM27.182 105.38C32.442 105.38 36.706 100.974 36.706 95.538C36.706 90.104 32.442 85.698 27.182 85.698C21.924 85.698 17.66 90.104 17.66 95.538C17.66 100.974 21.923 105.38 27.182 105.38Z" fill="white"/>
<path d="M69.935 62.002C69.935 67.437 65.671 71.845 60.413 71.845C55.155 71.845 50.89 67.437 50.89 62.002C50.89 56.568 55.155 52.161 60.413 52.161C65.671 52.161 69.935 56.568 69.935 62.002Z" fill="#22314E"/>
<path fill-rule="evenodd" clip-rule="evenodd" d="M86.935 62.002C86.935 76.2899 75.587 88.845 60.413 88.845C45.2412 88.845 33.89 76.2922 33.89 62.002C33.89 47.7094 45.2446 35.161 60.413 35.161C75.5837 35.161 86.935 47.7117 86.935 62.002ZM60.413 71.845C65.671 71.845 69.935 67.437 69.935 62.002C69.935 56.568 65.671 52.161 60.413 52.161C55.155 52.161 50.89 56.568 50.89 62.002C50.89 67.437 55.155 71.845 60.413 71.845Z" fill="white"/>
<path d="M69.935 28.466C69.935 33.9 65.671 38.307 60.413 38.307C55.155 38.307 50.89 33.9 50.89 28.466C50.89 23.031 55.155 18.625 60.413 18.625C65.671 18.625 69.935 23.032 69.935 28.466Z" fill="#22314E"/>
<path fill-rule="evenodd" clip-rule="evenodd" d="M86.935 28.466C86.935 42.7563 75.5837 55.307 60.413 55.307C45.2446 55.307 33.89 42.7587 33.89 28.466C33.89 14.1712 45.2457 1.625 60.413 1.625C75.5837 1.625 86.935 14.1757 86.935 28.466ZM60.413 38.307C65.671 38.307 69.935 33.9 69.935 28.466C69.935 23.032 65.671 18.625 60.413 18.625C55.155 18.625 50.89 23.031 50.89 28.466C50.89 33.9 55.155 38.307 60.413 38.307Z" fill="white"/>
<path d="M103.165 62.002C103.165 67.437 98.901 71.845 93.642 71.845C88.383 71.845 84.12 67.437 84.12 62.002C84.12 56.568 88.384 52.161 93.642 52.161C98.902 52.161 103.165 56.568 103.165 62.002Z" fill="#22314E"/>
<path fill-rule="evenodd" clip-rule="evenodd" d="M120.165 62.002C120.165 76.291 108.816 88.845 93.642 88.845C78.4658 88.845 67.12 76.2887 67.12 62.002C67.12 47.7117 78.4713 35.161 93.642 35.161C108.815 35.161 120.165 47.7117 120.165 62.002ZM93.642 71.845C98.901 71.845 103.165 67.437 103.165 62.002C103.165 56.568 98.902 52.161 93.642 52.161C88.384 52.161 84.12 56.568 84.12 62.002C84.12 67.437 88.383 71.845 93.642 71.845Z" fill="white"/>
<path d="M103.165 28.466C103.165 33.9 98.901 38.307 93.642 38.307C88.383 38.307 84.12 33.9 84.12 28.466C84.12 23.031 88.384 18.625 93.642 18.625C98.902 18.625 103.165 23.032 103.165 28.466Z" fill="#22314E"/>
<path fill-rule="evenodd" clip-rule="evenodd" d="M120.165 28.466C120.165 42.7575 108.813 55.307 93.642 55.307C78.4691 55.307 67.12 42.7551 67.12 28.466C67.12 14.1736 78.4724 1.625 93.642 1.625C108.815 1.625 120.165 14.1757 120.165 28.466ZM93.642 38.307C98.901 38.307 103.165 33.9 103.165 28.466C103.165 23.032 98.902 18.625 93.642 18.625C88.384 18.625 84.12 23.031 84.12 28.466C84.12 33.9 88.383 38.307 93.642 38.307Z" fill="white"/>
<path d="M103.165 95.538C103.165 100.974 98.901 105.38 93.642 105.38C88.383 105.38 84.12 100.974 84.12 95.538C84.12 90.104 88.384 85.698 93.642 85.698C98.902 85.698 103.165 90.104 103.165 95.538Z" fill="#22314E"/>
<path fill-rule="evenodd" clip-rule="evenodd" d="M120.165 95.538C120.165 109.831 108.813 122.38 93.642 122.38C78.4692 122.38 67.12 109.829 67.12 95.538C67.12 81.2455 78.4735 68.698 93.642 68.698C108.812 68.698 120.165 81.2454 120.165 95.538ZM93.642 105.38C98.901 105.38 103.165 100.974 103.165 95.538C103.165 90.104 98.902 85.698 93.642 85.698C88.384 85.698 84.12 90.104 84.12 95.538C84.12 100.974 88.383 105.38 93.642 105.38Z" fill="white"/>
<path d="M69.935 95.538C69.935 100.974 65.671 105.38 60.413 105.38C55.155 105.38 50.89 100.974 50.89 95.538C50.89 90.104 55.155 85.698 60.413 85.698C65.671 85.698 69.935 90.104 69.935 95.538Z" fill="#22314E"/>
<path fill-rule="evenodd" clip-rule="evenodd" d="M86.935 95.538C86.935 109.83 75.5836 122.38 60.413 122.38C45.2446 122.38 33.89 109.833 33.89 95.538C33.89 81.2431 45.2468 68.698 60.413 68.698C75.5815 68.698 86.935 81.2455 86.935 95.538ZM60.413 105.38C65.671 105.38 69.935 100.974 69.935 95.538C69.935 90.104 65.671 85.698 60.413 85.698C55.155 85.698 50.89 90.104 50.89 95.538C50.89 100.974 55.155 105.38 60.413 105.38Z" fill="white"/>
<path d="M194.167 44.614C194.167 58.426 187.126 66.935 175.789 69.895L192.854 105.166H178.414L161.826 71.006H142.971V105.166H130.679V18.839H167.316C181.875 18.839 194.167 26.855 194.167 44.614ZM181.517 44.984C181.517 35.981 175.789 31.048 167.316 31.048H142.971V58.795H167.316C175.669 58.795 181.517 54.356 181.517 44.984Z" fill="#22314E"/>
<path fill-rule="evenodd" clip-rule="evenodd" d="M167.316 31.048C175.672 31.048 181.359 35.8459 181.514 44.614C181.516 44.7365 181.517 44.8599 181.517 44.984C181.517 52.1239 178.123 56.4007 172.813 58.0329C172.775 58.0444 172.738 58.0557 172.701 58.0669C171.07 58.5544 169.261 58.795 167.316 58.795H142.971V31.048H167.316ZM167.934 41.7565C167.935 41.7569 167.921 41.76 167.893 41.7641C167.92 41.7581 167.934 41.756 167.934 41.7565ZM130.679 18.839H167.316C181.875 18.839 194.167 26.855 194.167 44.614C194.167 44.7377 194.166 44.8611 194.165 44.984C194.082 54.1059 190.895 60.8817 185.412 65.2389C183.685 66.6116 181.73 67.7442 179.573 68.6346C178.373 69.1298 177.11 69.5501 175.789 69.895L192.854 105.166H178.414L161.826 71.006H142.971V105.166H130.679V18.839ZM159.948 106.056C159.485 115.031 152.061 122.166 142.971 122.166H130.679C121.29 122.166 113.679 114.555 113.679 105.166V18.839C113.679 9.45015 121.29 1.83899 130.679 1.83899H167.316C177.522 1.83899 188.557 4.64242 197.31 12.1985C206.45 20.0891 211.167 31.5037 211.167 44.614C211.167 54.4427 208.627 63.8167 202.815 71.5437C201.353 73.4872 199.747 75.242 198.023 76.8168L208.157 97.762C210.706 103.03 210.366 109.239 207.257 114.197C204.147 119.156 198.706 122.166 192.854 122.166H178.414C171.904 122.166 165.965 118.448 163.122 112.592L159.948 106.056Z" fill="white"/>
<path d="M280.685 61.879C280.685 88.763 266.126 106.521 244.882 106.521C223.76 106.521 209.439 89.009 209.439 62.126C209.439 35.242 224 17.483 245.123 17.483C266.364 17.483 280.685 34.995 280.685 61.879ZM267.915 62.125C267.915 42.517 258.13 30.308 244.763 30.308C231.517 30.308 222.208 42.27 222.208 61.878C222.208 81.486 231.874 93.695 245.241 93.695C258.487 93.696 267.915 81.733 267.915 62.125Z" fill="#22314E"/>
<path fill-rule="evenodd" clip-rule="evenodd" d="M245.241 76.695H245.242C246.171 76.6951 246.876 76.512 247.863 75.1739C249.145 73.4356 250.915 69.4056 250.915 62.125C250.915 54.9753 249.117 50.8891 247.739 49.0472C246.612 47.5402 245.732 47.308 244.763 47.308C243.852 47.308 243.194 47.4729 242.236 48.781C240.969 50.5121 239.208 54.553 239.208 61.878C239.208 69.0719 240.997 73.1691 242.359 75.0032C243.457 76.4812 244.291 76.695 245.241 76.695ZM283.979 104.958C274.47 116.741 260.664 123.521 244.882 123.521C229.194 123.521 215.452 116.826 205.99 105.056C196.783 93.6026 192.439 78.4439 192.439 62.126C192.439 45.7454 196.875 30.5415 206.119 19.0614C215.598 7.2887 229.371 0.483032 245.123 0.483032C260.841 0.483032 274.615 7.15378 284.107 18.9333C293.341 30.3929 297.685 45.5613 297.685 61.879C297.685 78.2587 293.25 93.4717 283.979 104.958ZM245.241 106.519C266.225 106.321 280.597 88.7199 280.685 62.125C280.685 62.0431 280.685 61.9611 280.685 61.879C280.685 34.995 266.364 17.483 245.123 17.483C245.003 17.483 244.883 17.4836 244.763 17.4848C223.899 17.6848 209.528 35.2855 209.439 61.878C209.439 61.9606 209.439 62.0433 209.439 62.126C209.439 89.009 223.76 106.521 244.882 106.521C245.002 106.521 245.121 106.52 245.24 106.519C245.24 106.519 245.241 106.519 245.241 106.519ZM245.241 93.695C245.121 93.695 245.001 93.694 244.882 93.6921C231.757 93.4762 222.289 81.4135 222.208 62.126C222.208 62.0435 222.208 61.9608 222.208 61.878C222.208 42.27 231.517 30.308 244.763 30.308C244.883 30.308 245.003 30.309 245.123 30.311C258.25 30.5274 267.834 42.5909 267.914 61.879C267.915 61.9609 267.915 62.0429 267.915 62.125C267.915 81.733 258.487 93.696 245.241 93.695Z" fill="white"/>
<path d="M354.313 80.377C354.313 95.915 344.764 106.521 323.403 106.521C311.231 106.521 300.729 101.095 293.688 92.586L302.639 83.583C308.246 89.872 316.481 93.819 324.358 93.819C336.053 93.819 341.663 89.626 341.663 81.24C341.663 74.581 336.77 71.251 322.808 66.935C305.146 61.509 296.673 56.946 296.673 41.531C296.673 26.609 308.845 17.483 324.239 17.483C335.577 17.483 344.169 21.799 351.567 29.199L342.737 38.448C337.485 32.898 331.518 30.185 323.284 30.185C313.499 30.185 309.321 35.118 309.321 40.914C309.321 46.956 313.141 49.916 327.581 54.356C344.05 59.536 354.313 64.962 354.313 80.377Z" fill="#22314E"/>
<path fill-rule="evenodd" clip-rule="evenodd" d="M280.591 103.424C275.012 96.6817 275.462 86.8059 281.632 80.6001L290.583 71.5971C290.94 71.2381 291.311 70.8968 291.696 70.5737C282.992 62.879 279.673 52.7696 279.673 41.531C279.673 29.0323 284.951 18.2392 293.789 10.8611C302.339 3.72281 313.304 0.483032 324.239 0.483032C340.728 0.483032 353.487 7.07493 363.589 17.1798C370.118 23.7105 370.24 34.2588 363.863 40.9381L356.164 49.003C356.835 49.5068 357.492 50.0306 358.133 50.5757C366.87 58.0023 371.313 68.1079 371.313 80.377C371.313 91.6887 367.733 103.29 358.299 111.86C349.096 120.219 336.699 123.521 323.403 123.521C305.944 123.521 290.718 115.662 280.591 103.424ZM328.242 76.4417C328.242 76.4417 328.239 76.443 328.232 76.4453C328.238 76.4428 328.242 76.4416 328.242 76.4417ZM305.256 86.1851C304.641 85.6426 304.048 85.0756 303.477 84.4857C303.192 84.1905 302.912 83.8895 302.639 83.583L293.688 92.586C295.305 94.5408 297.106 96.3329 299.067 97.9338C301.554 99.9644 304.301 101.688 307.261 103.045C312.128 105.277 317.574 106.521 323.403 106.521C323.724 106.521 324.042 106.519 324.358 106.514C344.658 106.207 353.959 96.0757 354.303 81.24C354.31 80.9541 354.313 80.6664 354.313 80.377C354.313 64.962 344.05 59.536 327.581 54.356C327.308 54.2721 327.039 54.1888 326.774 54.1059C326.766 54.1036 326.759 54.1013 326.751 54.0989C313.48 49.9517 309.593 47.0496 309.335 41.531C309.326 41.3289 309.321 41.1233 309.321 40.914C309.321 35.118 313.499 30.185 323.284 30.185C323.606 30.185 323.924 30.1892 324.239 30.1975C330.779 30.3697 335.866 32.3318 340.33 36.1501C341.08 36.7917 341.812 37.4857 342.531 38.2324C342.6 38.3038 342.668 38.3757 342.737 38.448L351.567 29.199C350.986 28.6181 350.398 28.0562 349.802 27.5139C345.987 24.0437 341.839 21.3761 337.163 19.6673C333.262 18.2414 328.992 17.483 324.239 17.483C323.919 17.483 323.601 17.487 323.284 17.4948C308.556 17.8594 297.004 26.6645 296.68 40.914C296.675 41.1186 296.673 41.3242 296.673 41.531C296.673 56.946 305.146 61.509 322.808 66.935C323.059 67.0126 323.307 67.0898 323.552 67.1667C323.579 67.1753 323.607 67.1839 323.634 67.1926C336.363 71.1965 341.222 74.4124 341.634 80.377C341.653 80.6585 341.663 80.946 341.663 81.24C341.663 89.626 336.053 93.819 324.358 93.819C324.04 93.819 323.722 93.8126 323.403 93.7999C316.975 93.5429 310.391 90.7166 305.256 86.1851ZM322.05 47.2709C322.021 47.2792 322.006 47.2823 322.006 47.2818C322.005 47.2814 322.02 47.2772 322.05 47.2709Z" fill="white"/>
<path d="M441.879 104.652H380.333C381.191 79.519 396.394 68.362 413.312 58.309C424.959 51.443 427.901 47.642 427.901 41.635C427.901 34.769 423.243 30.356 411.473 30.356C404.24 30.356 396.27 33.666 390.754 38.938L382.539 29.13C390.263 21.897 401.174 17.483 411.841 17.483C429.618 17.483 441.02 25.084 441.02 40.9C441.02 54.141 434.522 59.781 419.443 68.731C403.014 78.416 398.356 83.934 396.394 92.147H441.879V104.652Z" fill="#22314E"/>
<path fill-rule="evenodd" clip-rule="evenodd" d="M458.879 104.652C458.879 114.041 451.268 121.652 441.879 121.652H380.333C375.724 121.652 371.312 119.78 368.109 116.466C364.906 113.152 363.186 108.679 363.343 104.072C363.901 87.7329 369.298 75.0167 377.77 64.907C380.694 61.417 383.913 58.3316 387.241 55.5711C383.541 54.7897 380.181 52.79 377.722 49.8538L369.507 40.0458C363.712 33.1282 364.333 22.8891 370.919 16.7213C381.727 6.60028 396.769 0.483032 411.841 0.483032C422.797 0.483032 434.288 2.77406 443.42 9.75412C453.269 17.2817 458.02 28.4537 458.02 40.9C458.02 50.8467 455.388 59.6279 448.911 67.3496C446.484 70.2426 443.646 72.8087 440.602 75.147H441.879C451.268 75.147 458.879 82.7582 458.879 92.147V104.652ZM421.972 72.9381C427.98 69.3952 433.741 65.5489 437.887 60.7064C442.984 54.754 444.901 48.2616 444.901 41.635C444.901 41.3907 444.898 41.1457 444.892 40.9C444.713 33.4265 441.78 25.3869 434.25 19.7828C427.508 14.7654 419.272 13.4002 411.841 13.3571C411.718 13.3564 411.595 13.356 411.473 13.356C399.884 13.356 388.086 18.2943 379.651 26.046C379.434 26.245 379.22 26.4458 379.008 26.6485L390.754 38.938L391.297 38.4829L394.159 41.5388C398.708 37.2788 405.315 34.5897 411.473 34.4861C411.596 34.4841 411.719 34.483 411.841 34.483C418.662 34.483 421.76 35.9925 422.773 36.7669C423.174 37.0729 423.358 37.3277 423.508 37.655C423.683 38.0364 424.02 38.9982 424.02 40.9C424.02 41.1628 424.016 41.4074 424.008 41.635C423.957 43.0704 423.766 43.8286 423.644 44.193C423.529 44.5373 423.357 44.9089 422.861 45.4997C421.435 47.2 418.432 49.5592 410.819 54.0806C410.814 54.0835 410.809 54.0864 410.805 54.0893C410.799 54.0927 410.793 54.0961 410.788 54.0994C402.248 59.135 395.336 63.8852 390.215 69.2334C384.497 75.2046 381.482 81.4024 379.859 88.1971C379.097 91.3893 379.283 94.6909 380.333 97.719V104.652L385.055 104.813C388.147 107.581 392.176 109.147 396.394 109.147H441.879V104.652H380.333C380.401 102.656 380.56 100.749 380.802 98.9226C381.283 95.3088 382.093 92.015 383.183 88.9911C383.346 88.5388 383.516 88.0925 383.691 87.652C389.209 73.8053 400.769 65.7649 413.271 58.3331C413.282 58.327 413.292 58.3208 413.303 58.3147C413.306 58.3128 413.309 58.3109 413.312 58.309C424.959 51.443 427.901 47.642 427.901 41.635C427.901 41.3868 427.895 41.1418 427.883 40.9C427.558 34.5258 422.92 30.4455 411.841 30.3575C411.719 30.3565 411.596 30.356 411.473 30.356C405.435 30.356 398.884 32.6623 393.676 36.491C392.837 37.1074 392.033 37.7634 391.272 38.4555C391.097 38.6145 390.924 38.7753 390.754 38.938L382.539 29.13C383.625 28.1127 384.775 27.1511 385.978 26.2498C389.367 23.7104 393.18 21.649 397.205 20.1646C401.792 18.4727 406.653 17.5305 411.473 17.4848C411.596 17.4836 411.718 17.483 411.841 17.483C429.618 17.483 441.02 25.084 441.02 40.9C441.02 41.1477 441.018 41.3926 441.013 41.635C440.774 54.34 434.253 59.9369 419.489 68.7038C419.477 68.711 419.465 68.7182 419.453 68.7254C419.449 68.7273 419.446 68.7291 419.443 68.731C415.454 71.0826 412.159 73.1885 409.428 75.147C403.078 79.7009 399.777 83.4576 397.893 87.652C397.25 89.0831 396.772 90.5651 396.394 92.147H441.879V87.652" fill="white"/>
<path d="M36.706 28.466C36.706 33.9 32.442 38.307 27.182 38.307C21.923 38.307 17.66 33.9 17.66 28.466C17.66 23.031 21.924 18.625 27.182 18.625C32.442 18.625 36.706 23.032 36.706 28.466Z" fill="#22314E"/>
<path d="M36.706 62.002C36.706 67.437 32.442 71.845 27.182 71.845C21.923 71.845 17.66 67.437 17.66 62.002C17.66 56.568 21.924 52.161 27.182 52.161C32.442 52.161 36.706 56.568 36.706 62.002Z" fill="#22314E"/>
<path d="M36.706 95.538C36.706 100.974 32.442 105.38 27.182 105.38C21.923 105.38 17.66 100.974 17.66 95.538C17.66 90.104 21.924 85.698 27.182 85.698C32.442 85.698 36.706 90.104 36.706 95.538Z" fill="#22314E"/>
<path d="M69.935 62.002C69.935 67.437 65.671 71.845 60.413 71.845C55.155 71.845 50.89 67.437 50.89 62.002C50.89 56.568 55.155 52.161 60.413 52.161C65.671 52.161 69.935 56.568 69.935 62.002Z" fill="#22314E"/>
<path d="M69.935 28.466C69.935 33.9 65.671 38.307 60.413 38.307C55.155 38.307 50.89 33.9 50.89 28.466C50.89 23.031 55.155 18.625 60.413 18.625C65.671 18.625 69.935 23.032 69.935 28.466Z" fill="#22314E"/>
<path d="M103.165 62.002C103.165 67.437 98.901 71.845 93.642 71.845C88.383 71.845 84.12 67.437 84.12 62.002C84.12 56.568 88.384 52.161 93.642 52.161C98.902 52.161 103.165 56.568 103.165 62.002Z" fill="#22314E"/>
<path d="M103.165 28.466C103.165 33.9 98.901 38.307 93.642 38.307C88.383 38.307 84.12 33.9 84.12 28.466C84.12 23.031 88.384 18.625 93.642 18.625C98.902 18.625 103.165 23.032 103.165 28.466Z" fill="#22314E"/>
<path d="M103.165 95.538C103.165 100.974 98.901 105.38 93.642 105.38C88.383 105.38 84.12 100.974 84.12 95.538C84.12 90.104 88.384 85.698 93.642 85.698C98.902 85.698 103.165 90.104 103.165 95.538Z" fill="#22314E"/>
<path d="M69.935 95.538C69.935 100.974 65.671 105.38 60.413 105.38C55.155 105.38 50.89 100.974 50.89 95.538C50.89 90.104 55.155 85.698 60.413 85.698C65.671 85.698 69.935 90.104 69.935 95.538Z" fill="#22314E"/>
<path d="M194.167 44.614C194.167 58.426 187.126 66.935 175.789 69.895L192.854 105.166H178.414L161.826 71.006H142.971V105.166H130.679V18.839H167.316C181.875 18.839 194.167 26.855 194.167 44.614ZM181.517 44.984C181.517 35.981 175.789 31.048 167.316 31.048H142.971V58.795H167.316C175.669 58.795 181.517 54.356 181.517 44.984Z" fill="#22314E"/>
<path d="M280.685 61.879C280.685 88.763 266.126 106.521 244.882 106.521C223.76 106.521 209.439 89.009 209.439 62.126C209.439 35.242 224 17.483 245.123 17.483C266.364 17.483 280.685 34.995 280.685 61.879ZM267.915 62.125C267.915 42.517 258.13 30.308 244.763 30.308C231.517 30.308 222.208 42.27 222.208 61.878C222.208 81.486 231.874 93.695 245.241 93.695C258.487 93.696 267.915 81.733 267.915 62.125Z" fill="#22314E"/>
<path d="M354.313 80.377C354.313 95.915 344.764 106.521 323.403 106.521C311.231 106.521 300.729 101.095 293.688 92.586L302.639 83.583C308.246 89.872 316.481 93.819 324.358 93.819C336.053 93.819 341.663 89.626 341.663 81.24C341.663 74.581 336.77 71.251 322.808 66.935C305.146 61.509 296.673 56.946 296.673 41.531C296.673 26.609 308.845 17.483 324.239 17.483C335.577 17.483 344.169 21.799 351.567 29.199L342.737 38.448C337.485 32.898 331.518 30.185 323.284 30.185C313.499 30.185 309.321 35.118 309.321 40.914C309.321 46.956 313.141 49.916 327.581 54.356C344.05 59.536 354.313 64.962 354.313 80.377Z" fill="#22314E"/>
<path d="M441.879 104.652H380.333C381.191 79.519 396.394 68.362 413.312 58.309C424.959 51.443 427.901 47.642 427.901 41.635C427.901 34.769 423.243 30.356 411.473 30.356C404.24 30.356 396.27 33.666 390.754 38.938L382.539 29.13C390.263 21.897 401.174 17.483 411.841 17.483C429.618 17.483 441.02 25.084 441.02 40.9C441.02 54.141 434.522 59.781 419.443 68.731C403.014 78.416 398.356 83.934 396.394 92.147H441.879V104.652Z" fill="#22314E"/>
</g>
<defs>
<clipPath id="clip0_14_183">
<rect width="459" height="124" fill="white"/>
</clipPath>
</defs>
</svg>
